<?xml version="1.0" encoding="UTF-8"?>
<svg xmlns="http://www.w3.org/2000/svg" xmlns:xlink="http://www.w3.org/1999/xlink" width="192px" height="192px" viewBox="0 0 192 192" version="1.1">
<g id="surface1">
<path style=" stroke:none;fill-rule:nonzero;fill:rgb(34.901962%,33.333334%,33.333334%);fill-opacity:1;" d="M 18 137.59375 L 90 180 L 90 106.5 L 18 63.75 Z M 72 108 C 75.316406 108 78 112.03125 78 117 C 78 121.96875 75.316406 126 72 126 C 68.683594 126 66 121.96875 66 117 C 66 112.03125 68.683594 108 72 108 M 36 120 C 39.316406 120 42 124.03125 42 129 C 42 133.96875 39.316406 138 36 138 C 32.683594 138 30 133.96875 30 129 C 30 124.03125 32.683594 120 36 120 M 102 106.5 L 102 180 L 174 137.59375 L 174 63.75 Z M 120 159 C 116.683594 159 114 154.96875 114 150 C 114 145.03125 116.683594 141 120 141 C 123.316406 141 126 145.03125 126 150 C 126 154.96875 123.316406 159 120 159 M 120 126 C 116.683594 126 114 121.96875 114 117 C 114 112.03125 116.683594 108 120 108 C 123.316406 108 126 112.03125 126 117 C 126 121.96875 123.316406 126 120 126 M 156 138 C 152.683594 138 150 133.96875 150 129 C 150 124.03125 152.683594 120 156 120 C 159.316406 120 162 124.03125 162 129 C 162 133.96875 159.316406 138 156 138 M 156 105 C 152.683594 105 150 100.96875 150 96 C 150 91.03125 152.683594 87 156 87 C 159.316406 87 162 91.03125 162 96 C 162 100.96875 159.316406 105 156 105 M 96 12 L 24 54 L 96 96 L 168 54 Z M 96 57 C 91.03125 57 87 54.316406 87 51 C 87 47.683594 91.03125 45 96 45 C 100.96875 45 105 47.683594 105 51 C 105 54.316406 100.96875 57 96 57 "/>
</g>
</svg>
